<svg width="1599" height="635" viewBox="0 0 1599 635" fill="none" xmlns="http://www.w3.org/2000/svg">
<mask id="mask0_23262_1304" style="mask-type:alpha" maskUnits="userSpaceOnUse" x="0" y="0" width="1600" height="635">
<rect width="1600" height="635" fill="#C4C4C4"/>
</mask>
<g mask="url(#mask0_23262_1304)">
<path d="M247.314 71.9751C80.7575 51.8805 -167.022 -26 -167.022 -26L-194 615.365C-194 615.365 239.231 512.505 525.977 512.654C741.808 512.767 880.307 528.28 1095.08 548.874C1343.61 572.705 1712.45 624.377 1712.45 624.377L1731.8 164.389C1731.8 164.389 1323.56 69.6371 1047.26 46.4251C732.382 19.9722 560.614 109.774 247.314 71.9751Z" fill="#276ED8" fill-opacity="0.1"/>
<path d="M350 114.726C209.184 103.72 -1.99982 47 -1.99982 47V587.231C-1.99982 587.231 358.788 485.421 600 475.405C781.558 467.866 898.61 476.011 1080 485.731C1289.9 496.979 1602 527.38 1602 527.38V139.926C1602 139.926 1255.24 74.6947 1022 64.9498C756.192 53.8442 614.881 135.427 350 114.726Z" fill="#276ED8"/>
<rect x="759" y="354" width="158" height="40" rx="5" fill="white" stroke="#06B25F" stroke-width="2"/>
<path d="M792.414 368.8H795.006V377.888H800.622V380H792.414V368.8ZM810.742 377.92V380H802.07V368.8H810.534V370.88H804.646V373.312H809.846V375.328H804.646V377.92H810.742ZM815.125 370.912H811.541V368.8H821.301V370.912H817.717V380H815.125V370.912ZM823.87 368C824.318 368 824.686 368.144 824.974 368.432C825.262 368.709 825.406 369.077 825.406 369.536C825.406 369.749 825.379 369.963 825.326 370.176C825.273 370.389 825.161 370.709 824.99 371.136L824.062 373.44H822.478L823.166 370.912C822.899 370.795 822.691 370.619 822.542 370.384C822.393 370.149 822.318 369.867 822.318 369.536C822.318 369.077 822.462 368.709 822.75 368.432C823.049 368.144 823.422 368 823.87 368ZM831.11 380.192C830.224 380.192 829.366 380.075 828.534 379.84C827.712 379.595 827.051 379.28 826.55 378.896L827.43 376.944C827.91 377.296 828.48 377.579 829.142 377.792C829.803 378.005 830.464 378.112 831.126 378.112C831.862 378.112 832.406 378.005 832.758 377.792C833.11 377.568 833.286 377.275 833.286 376.912C833.286 376.645 833.179 376.427 832.966 376.256C832.763 376.075 832.496 375.931 832.166 375.824C831.846 375.717 831.408 375.6 830.854 375.472C830 375.269 829.302 375.067 828.758 374.864C828.214 374.661 827.744 374.336 827.35 373.888C826.966 373.44 826.774 372.843 826.774 372.096C826.774 371.445 826.95 370.859 827.302 370.336C827.654 369.803 828.182 369.381 828.886 369.072C829.6 368.763 830.47 368.608 831.494 368.608C832.208 368.608 832.907 368.693 833.59 368.864C834.272 369.035 834.87 369.28 835.382 369.6L834.582 371.568C833.547 370.981 832.512 370.688 831.478 370.688C830.752 370.688 830.214 370.805 829.862 371.04C829.52 371.275 829.35 371.584 829.35 371.968C829.35 372.352 829.547 372.64 829.942 372.832C830.347 373.013 830.96 373.195 831.782 373.376C832.635 373.579 833.334 373.781 833.878 373.984C834.422 374.187 834.886 374.507 835.27 374.944C835.664 375.381 835.862 375.973 835.862 376.72C835.862 377.36 835.68 377.947 835.318 378.48C834.966 379.003 834.432 379.419 833.718 379.728C833.003 380.037 832.134 380.192 831.11 380.192ZM844.484 370.912H840.9V368.8H850.66V370.912H847.076V380H844.484V370.912ZM858.868 377.6H853.668L852.676 380H850.02L855.012 368.8H857.572L862.58 380H859.86L858.868 377.6ZM858.052 375.632L856.276 371.344L854.5 375.632H858.052ZM863.742 368.8H866.334V377.888H871.95V380H863.742V368.8ZM877.478 375.6L875.974 377.168V380H873.398V368.8H875.974V374.032L880.934 368.8H883.814L879.174 373.792L884.086 380H881.062L877.478 375.6Z" fill="#06B25F"/>
<path d="M301 256V229.531C301 228.672 301.287 227.956 301.86 227.383C302.49 226.753 303.235 226.438 304.094 226.438H307.102V250.5H321.539V256H301ZM330.71 241.219C330.71 244.542 331.427 247.062 332.859 248.781C334.291 250.557 336.325 251.445 338.96 251.445C341.539 251.445 343.572 250.557 345.062 248.781C346.552 246.948 347.296 244.427 347.296 241.219C347.296 238.01 346.552 235.461 345.062 233.57C343.572 231.794 341.539 230.906 338.96 230.906C336.325 230.906 334.291 231.794 332.859 233.57C331.427 235.346 330.71 237.896 330.71 241.219ZM324.609 241.219C324.609 236.406 325.869 232.596 328.39 229.789C331.083 226.982 334.606 225.578 338.96 225.578C343.257 225.578 346.781 226.982 349.531 229.789C352.109 232.654 353.398 236.464 353.398 241.219C353.398 245.974 352.109 249.755 349.531 252.562C346.895 255.312 343.372 256.688 338.96 256.688C334.492 256.688 330.968 255.312 328.39 252.562C325.869 249.812 324.609 246.031 324.609 241.219ZM362.999 241.219C362.999 244.542 363.715 247.062 365.147 248.781C366.58 250.557 368.614 251.445 371.249 251.445C373.827 251.445 375.861 250.557 377.35 248.781C378.84 246.948 379.585 244.427 379.585 241.219C379.585 238.01 378.84 235.461 377.35 233.57C375.861 231.794 373.827 230.906 371.249 230.906C368.614 230.906 366.58 231.794 365.147 233.57C363.715 235.346 362.999 237.896 362.999 241.219ZM356.897 241.219C356.897 236.406 358.158 232.596 360.679 229.789C363.371 226.982 366.895 225.578 371.249 225.578C375.546 225.578 379.069 226.982 381.819 229.789C384.397 232.654 385.686 236.464 385.686 241.219C385.686 245.974 384.397 249.755 381.819 252.562C379.184 255.312 375.66 256.688 371.249 256.688C366.78 256.688 363.257 255.312 360.679 252.562C358.158 249.812 356.897 246.031 356.897 241.219ZM389.701 256V229.531C389.701 228.672 389.988 227.956 390.561 227.383C391.191 226.753 391.936 226.438 392.795 226.438H395.803V238.555L407.319 226.438H414.967L403.108 238.383L415.998 256H408.608L401.131 245.516C399.813 243.797 398.582 243.138 397.436 243.539C396.347 243.883 395.803 244.57 395.803 245.602V256H389.701ZM419.927 256V229.531C419.927 228.672 420.214 227.956 420.787 227.383C421.417 226.753 422.162 226.438 423.021 226.438H426.029V256H419.927ZM428.927 256V229.531C428.927 228.672 429.213 227.956 429.786 227.383C430.416 226.753 431.161 226.409 432.02 226.352H435.286L447.317 246.719V226.352H453.333V256H447.06L434.942 235.633V256H428.927ZM479.09 252.477C478.059 253.966 476.827 255.055 475.395 255.742C473.905 256.372 472.272 256.688 470.496 256.688C466.257 256.688 462.905 255.284 460.442 252.477C457.921 249.727 456.66 245.945 456.66 241.133C456.66 236.378 457.892 232.625 460.356 229.875C462.934 227.01 466.343 225.578 470.582 225.578C474.249 225.578 477.285 226.466 479.692 228.242C482.041 230.133 483.444 232.596 483.903 235.633H479.778C478.575 235.633 477.687 235.089 477.114 234C476.713 233.312 476.14 232.682 475.395 232.109C474.249 231.307 472.731 230.906 470.84 230.906C468.377 230.906 466.429 231.794 464.996 233.57C463.564 235.461 462.848 237.982 462.848 241.133C462.848 244.341 463.593 246.862 465.082 248.695C466.515 250.471 468.549 251.359 471.184 251.359C473.132 251.359 474.736 250.815 475.996 249.727C477.257 248.581 478.059 247.005 478.403 245H474.793C473.934 245 473.189 244.714 472.559 244.141C471.986 243.51 471.7 242.766 471.7 241.906V239.93H483.989V256H482.356C480.752 256 479.749 255.198 479.348 253.594L479.09 252.477ZM500.44 256V229.531C500.44 228.672 500.727 227.956 501.3 227.383C501.93 226.753 502.675 226.438 503.534 226.438H521.925V231.508H506.456V237.867H517.972V239.844C517.972 240.703 517.657 241.448 517.026 242.078C516.454 242.651 515.737 242.938 514.878 242.938H506.456V256H500.44ZM531.182 241.219C531.182 244.542 531.898 247.062 533.33 248.781C534.763 250.557 536.797 251.445 539.432 251.445C542.01 251.445 544.044 250.557 545.534 248.781C547.023 246.948 547.768 244.427 547.768 241.219C547.768 238.01 547.023 235.461 545.534 233.57C544.044 231.794 542.01 230.906 539.432 230.906C536.797 230.906 534.763 231.794 533.33 233.57C531.898 235.346 531.182 237.896 531.182 241.219ZM525.08 241.219C525.08 236.406 526.341 232.596 528.862 229.789C531.554 226.982 535.078 225.578 539.432 225.578C543.729 225.578 547.252 226.982 550.002 229.789C552.58 232.654 553.87 236.464 553.87 241.219C553.87 245.974 552.58 249.755 550.002 252.562C547.367 255.312 543.844 256.688 539.432 256.688C534.963 256.688 531.44 255.312 528.862 252.562C526.341 249.812 525.08 246.031 525.08 241.219ZM557.885 256V229.531C557.885 228.672 558.171 227.956 558.744 227.383C559.374 226.753 560.119 226.438 560.978 226.438H572.236C575.444 226.438 577.822 227.125 579.369 228.5C580.973 229.932 581.775 232.023 581.775 234.773C581.775 236.607 581.374 238.125 580.572 239.328C579.885 240.474 578.796 241.305 577.306 241.82C578.624 242.279 579.541 242.966 580.056 243.883C580.572 244.742 580.887 246.203 581.002 248.266L581.174 251.789C581.174 252.133 581.174 252.505 581.174 252.906C581.174 253.307 581.202 253.68 581.26 254.023C581.431 255.055 581.775 255.714 582.291 256H575.588C575.301 255.427 575.129 254.826 575.072 254.195C574.957 253.279 574.9 252.648 574.9 252.305L574.814 249.125C574.7 247.406 574.356 246.174 573.783 245.43C573.153 244.799 572.036 244.484 570.431 244.484H563.986V256H557.885ZM563.986 239.328H571.119C572.666 239.328 573.812 239.013 574.556 238.383C575.301 237.753 575.674 236.779 575.674 235.461C575.674 234.143 575.301 233.169 574.556 232.539C573.869 231.852 572.838 231.508 571.463 231.508H563.986V239.328ZM611.375 226.438H616.188L626.93 256H620.485L618.508 249.898H606.993L605.102 256H598.657L608.454 228.414C608.969 227.096 609.943 226.438 611.375 226.438ZM612.75 232.367L608.625 244.914H616.875L612.75 232.367ZM649.57 245.43V256H643.468V229.531C643.468 228.672 643.754 227.956 644.327 227.383C644.958 226.753 645.702 226.438 646.562 226.438H656.616C659.767 226.438 662.116 227.24 663.663 228.844C665.267 230.448 666.07 232.826 666.07 235.977C666.07 238.956 665.296 241.305 663.749 243.023C662.202 244.628 659.968 245.43 657.046 245.43H649.57ZM649.57 240.102H655.499C657.103 240.102 658.249 239.758 658.937 239.07C659.682 238.44 660.054 237.352 660.054 235.805C660.054 234.487 659.71 233.427 659.023 232.625C658.221 231.938 657.161 231.594 655.843 231.594H649.57V240.102ZM682.546 226.438H687.358L698.1 256H691.655L689.678 249.898H678.163L676.272 256H669.827L679.624 228.414C680.139 227.096 681.113 226.438 682.546 226.438ZM683.921 232.367L679.796 244.914H688.046L683.921 232.367ZM702.115 256V229.531C702.115 228.672 702.402 227.956 702.975 227.383C703.605 226.753 704.35 226.438 705.209 226.438H716.467C719.675 226.438 722.053 227.125 723.6 228.5C725.204 229.932 726.006 232.023 726.006 234.773C726.006 236.607 725.605 238.125 724.803 239.328C724.115 240.474 723.027 241.305 721.537 241.82C722.855 242.279 723.771 242.966 724.287 243.883C724.803 244.742 725.118 246.203 725.232 248.266L725.404 251.789C725.404 252.133 725.404 252.505 725.404 252.906C725.404 253.307 725.433 253.68 725.49 254.023C725.662 255.055 726.006 255.714 726.521 256H719.818C719.532 255.427 719.36 254.826 719.303 254.195C719.188 253.279 719.131 252.648 719.131 252.305L719.045 249.125C718.93 247.406 718.587 246.174 718.014 245.43C717.383 244.799 716.266 244.484 714.662 244.484H708.217V256H702.115ZM708.217 239.328H715.35C716.896 239.328 718.042 239.013 718.787 238.383C719.532 237.753 719.904 236.779 719.904 235.461C719.904 234.143 719.532 233.169 718.787 232.539C718.1 231.852 717.068 231.508 715.693 231.508H708.217V239.328ZM739.13 256V231.68H730.365V229.531C730.365 228.672 730.651 227.956 731.224 227.383C731.854 226.753 732.599 226.438 733.458 226.438H753.911V231.68H745.232V256H739.13ZM757.669 256V229.531C757.669 228.672 757.955 227.956 758.528 227.383C759.158 226.753 759.903 226.409 760.762 226.352H764.028L776.059 246.719V226.352H782.075V256H775.801L763.684 235.633V256H757.669ZM785.918 256V229.531C785.918 228.672 786.204 227.956 786.777 227.383C787.408 226.753 788.152 226.438 789.012 226.438H807.402V231.508H791.934V237.867H803.449V239.844C803.449 240.703 803.134 241.448 802.504 242.078C801.931 242.651 801.215 242.938 800.355 242.938H791.934V250.5H807.402V256H785.918ZM811.074 256V229.531C811.074 228.672 811.36 227.956 811.933 227.383C812.563 226.753 813.308 226.438 814.167 226.438H825.425C828.634 226.438 831.011 227.125 832.558 228.5C834.162 229.932 834.964 232.023 834.964 234.773C834.964 236.607 834.563 238.125 833.761 239.328C833.074 240.474 831.985 241.305 830.495 241.82C831.813 242.279 832.73 242.966 833.245 243.883C833.761 244.742 834.076 246.203 834.191 248.266L834.363 251.789C834.363 252.133 834.363 252.505 834.363 252.906C834.363 253.307 834.391 253.68 834.449 254.023C834.62 255.055 834.964 255.714 835.48 256H828.777C828.49 255.427 828.318 254.826 828.261 254.195C828.147 253.279 828.089 252.648 828.089 252.305L828.003 249.125C827.889 247.406 827.545 246.174 826.972 245.43C826.342 244.799 825.225 244.484 823.62 244.484H817.175V256H811.074ZM817.175 239.328H824.308C825.855 239.328 827.001 239.013 827.745 238.383C828.49 237.753 828.863 236.779 828.863 235.461C828.863 234.143 828.49 233.169 827.745 232.539C827.058 231.852 826.027 231.508 824.652 231.508H817.175V239.328ZM851.846 256V229.531C851.846 228.672 852.132 227.956 852.705 227.383C853.335 226.753 854.08 226.438 854.94 226.438H857.947V256H851.846ZM860.845 256V229.531C860.845 228.672 861.132 227.956 861.705 227.383C862.335 226.753 863.08 226.409 863.939 226.352H867.205L879.236 246.719V226.352H885.251V256H878.978L866.861 235.633V256H860.845ZM901.617 256V229.531C901.617 228.672 901.904 227.956 902.477 227.383C903.107 226.753 903.852 226.438 904.711 226.438H915.539C918.576 226.438 920.896 227.068 922.5 228.328C924.104 229.703 924.906 231.565 924.906 233.914C924.906 235.404 924.591 236.664 923.961 237.695C923.331 238.669 922.443 239.443 921.297 240.016C922.787 240.646 923.932 241.534 924.735 242.68C925.479 243.768 925.852 245.201 925.852 246.977C925.852 249.841 924.935 252.076 923.102 253.68C921.211 255.227 918.547 256 915.11 256H901.617ZM907.461 237.867H914.422C915.912 237.867 917 237.609 917.688 237.094C918.375 236.578 918.719 235.776 918.719 234.688C918.719 233.599 918.375 232.797 917.688 232.281C917.115 231.823 915.998 231.594 914.336 231.594H907.461V237.867ZM907.461 250.672H914.68C916.284 250.672 917.516 250.357 918.375 249.727C919.177 249.154 919.578 248.18 919.578 246.805C919.578 245.43 919.177 244.427 918.375 243.797C917.63 243.224 916.37 242.938 914.594 242.938H907.461V250.672ZM935.882 226.352V244.828C935.882 247.12 936.312 248.81 937.171 249.898C938.088 250.93 939.549 251.445 941.554 251.445C943.502 251.445 944.963 250.93 945.937 249.898C946.854 248.867 947.312 247.177 947.312 244.828V226.352H953.414V245.516C953.414 249.182 952.382 251.961 950.32 253.852C948.429 255.742 945.507 256.688 941.554 256.688C937.601 256.688 934.679 255.742 932.789 253.852C930.726 251.961 929.695 249.182 929.695 245.516V229.617C929.695 228.758 929.981 228.013 930.554 227.383C931.184 226.695 931.929 226.352 932.789 226.352H935.882ZM957.171 256V229.531C957.171 228.672 957.457 227.956 958.03 227.383C958.66 226.753 959.405 226.438 960.265 226.438H963.272V256H957.171ZM966.17 256V229.531C966.17 228.672 966.457 227.956 967.03 227.383C967.66 226.753 968.405 226.438 969.264 226.438H972.272V250.5H986.709V256H966.17ZM990.295 256V229.531C990.295 228.672 990.581 227.956 991.154 227.383C991.784 226.753 992.529 226.438 993.388 226.438H1001.9C1006.42 226.438 1009.8 227.641 1012.04 230.047C1014.27 232.568 1015.39 236.292 1015.39 241.219C1015.39 243.854 1014.99 246.232 1014.19 248.352C1013.27 250.529 1012.07 252.19 1010.58 253.336C1009.32 254.31 1007.97 254.997 1006.54 255.398C1005.16 255.799 1003.07 256 1000.26 256H990.295ZM996.224 250.672H1001.12C1003.93 250.672 1005.99 249.927 1007.31 248.438C1008.57 247.062 1009.2 244.656 1009.2 241.219C1009.2 237.896 1008.6 235.461 1007.4 233.914C1006.25 232.367 1004.42 231.594 1001.9 231.594H996.224V250.672ZM1019.23 256V229.531C1019.23 228.672 1019.52 227.956 1020.09 227.383C1020.72 226.753 1021.47 226.438 1022.33 226.438H1025.33V256H1019.23ZM1028.23 256V229.531C1028.23 228.672 1028.52 227.956 1029.09 227.383C1029.72 226.753 1030.47 226.409 1031.32 226.352H1034.59L1046.62 246.719V226.352H1052.64V256H1046.36L1034.25 235.633V256H1028.23ZM1078.39 252.477C1077.36 253.966 1076.13 255.055 1074.7 255.742C1073.21 256.372 1071.58 256.688 1069.8 256.688C1065.56 256.688 1062.21 255.284 1059.75 252.477C1057.22 249.727 1055.96 245.945 1055.96 241.133C1055.96 236.378 1057.2 232.625 1059.66 229.875C1062.24 227.01 1065.65 225.578 1069.89 225.578C1073.55 225.578 1076.59 226.466 1079 228.242C1081.34 230.133 1082.75 232.596 1083.21 235.633H1079.08C1077.88 235.633 1076.99 235.089 1076.42 234C1076.02 233.312 1075.44 232.682 1074.7 232.109C1073.55 231.307 1072.03 230.906 1070.14 230.906C1067.68 230.906 1065.73 231.794 1064.3 233.57C1062.87 235.461 1062.15 237.982 1062.15 241.133C1062.15 244.341 1062.9 246.862 1064.39 248.695C1065.82 250.471 1067.85 251.359 1070.49 251.359C1072.44 251.359 1074.04 250.815 1075.3 249.727C1076.56 248.581 1077.36 247.005 1077.71 245H1074.1C1073.24 245 1072.49 244.714 1071.86 244.141C1071.29 243.51 1071 242.766 1071 241.906V239.93H1083.29V256H1081.66C1080.06 256 1079.05 255.198 1078.65 253.594L1078.39 252.477ZM1112.46 226.438H1117.28L1128.02 256H1121.57L1119.6 249.898H1108.08L1106.19 256H1099.74L1109.54 228.414C1110.06 227.096 1111.03 226.438 1112.46 226.438ZM1113.84 232.367L1109.71 244.914H1117.96L1113.84 232.367ZM1144.56 246.805H1150.57C1150.8 248.523 1151.46 249.727 1152.55 250.414C1153.69 251.216 1155.27 251.617 1157.27 251.617C1159.05 251.617 1160.4 251.302 1161.31 250.672C1162.23 250.042 1162.69 249.125 1162.69 247.922C1162.69 246.089 1160.11 244.599 1154.95 243.453L1154.78 243.367C1154.78 243.367 1154.55 243.31 1154.09 243.195C1151.17 242.565 1149.23 241.906 1148.25 241.219C1147.11 240.589 1146.3 239.672 1145.84 238.469C1145.27 237.438 1144.99 236.12 1144.99 234.516C1144.99 231.708 1145.96 229.503 1147.91 227.898C1149.86 226.352 1152.69 225.578 1156.42 225.578C1159.91 225.578 1162.6 226.38 1164.49 227.984C1166.44 229.76 1167.47 232.081 1167.59 234.945H1164.15C1162.83 234.945 1161.89 234.344 1161.31 233.141C1161.03 232.568 1160.63 232.081 1160.11 231.68C1159.08 230.935 1157.68 230.562 1155.9 230.562C1154.18 230.562 1152.95 230.878 1152.2 231.508C1151.34 232.138 1150.92 233.026 1150.92 234.172C1150.92 235.719 1152.58 236.865 1155.9 237.609C1156.87 237.896 1157.59 238.068 1158.05 238.125C1159.08 238.469 1159.97 238.755 1160.71 238.984C1161.51 239.156 1162.14 239.299 1162.6 239.414C1163.4 239.758 1164.21 240.102 1165.01 240.445C1166.15 241.133 1167.04 242.021 1167.67 243.109C1168.3 244.312 1168.62 245.63 1168.62 247.062C1168.62 250.156 1167.59 252.562 1165.52 254.281C1163.46 255.885 1160.54 256.688 1156.76 256.688C1152.86 256.688 1149.94 255.857 1147.99 254.195C1145.87 252.534 1144.73 250.07 1144.56 246.805ZM1178.05 241.219C1178.05 244.542 1178.76 247.062 1180.2 248.781C1181.63 250.557 1183.66 251.445 1186.3 251.445C1188.88 251.445 1190.91 250.557 1192.4 248.781C1193.89 246.948 1194.63 244.427 1194.63 241.219C1194.63 238.01 1193.89 235.461 1192.4 233.57C1190.91 231.794 1188.88 230.906 1186.3 230.906C1183.66 230.906 1181.63 231.794 1180.2 233.57C1178.76 235.346 1178.05 237.896 1178.05 241.219ZM1171.95 241.219C1171.95 236.406 1173.21 232.596 1175.73 229.789C1178.42 226.982 1181.94 225.578 1186.3 225.578C1190.59 225.578 1194.12 226.982 1196.87 229.789C1199.45 232.654 1200.73 236.464 1200.73 241.219C1200.73 245.974 1199.45 249.755 1196.87 252.562C1194.23 255.312 1190.71 256.688 1186.3 256.688C1181.83 256.688 1178.31 255.312 1175.73 252.562C1173.21 249.812 1171.95 246.031 1171.95 241.219ZM1204.75 256V229.531C1204.75 228.672 1205.04 227.956 1205.61 227.383C1206.24 226.753 1206.98 226.438 1207.84 226.438H1210.85V250.5H1225.29V256H1204.75ZM1235.06 226.352V244.828C1235.06 247.12 1235.49 248.81 1236.35 249.898C1237.27 250.93 1238.73 251.445 1240.73 251.445C1242.68 251.445 1244.14 250.93 1245.12 249.898C1246.03 248.867 1246.49 247.177 1246.49 244.828V226.352H1252.59V245.516C1252.59 249.182 1251.56 251.961 1249.5 253.852C1247.61 255.742 1244.69 256.688 1240.73 256.688C1236.78 256.688 1233.86 255.742 1231.97 253.852C1229.91 251.961 1228.87 249.182 1228.87 245.516V229.617C1228.87 228.758 1229.16 228.013 1229.73 227.383C1230.36 226.695 1231.11 226.352 1231.97 226.352H1235.06ZM1265.12 256V231.68H1256.35V229.531C1256.35 228.672 1256.64 227.956 1257.21 227.383C1257.84 226.753 1258.58 226.438 1259.44 226.438H1279.9V231.68H1271.22V256H1265.12ZM1283.65 256V229.531C1283.65 228.672 1283.94 227.956 1284.51 227.383C1285.14 226.753 1285.89 226.438 1286.75 226.438H1289.76V256H1283.65ZM1298.24 241.219C1298.24 244.542 1298.96 247.062 1300.39 248.781C1301.82 250.557 1303.85 251.445 1306.49 251.445C1309.07 251.445 1311.1 250.557 1312.59 248.781C1314.08 246.948 1314.83 244.427 1314.83 241.219C1314.83 238.01 1314.08 235.461 1312.59 233.57C1311.1 231.794 1309.07 230.906 1306.49 230.906C1303.85 230.906 1301.82 231.794 1300.39 233.57C1298.96 235.346 1298.24 237.896 1298.24 241.219ZM1292.14 241.219C1292.14 236.406 1293.4 232.596 1295.92 229.789C1298.61 226.982 1302.14 225.578 1306.49 225.578C1310.79 225.578 1314.31 226.982 1317.06 229.789C1319.64 232.654 1320.93 236.464 1320.93 241.219C1320.93 245.974 1319.64 249.755 1317.06 252.562C1314.42 255.312 1310.9 256.688 1306.49 256.688C1302.02 256.688 1298.5 255.312 1295.92 252.562C1293.4 249.812 1292.14 246.031 1292.14 241.219ZM1324.94 256V229.531C1324.94 228.672 1325.23 227.956 1325.8 227.383C1326.43 226.753 1327.18 226.409 1328.04 226.352H1331.3L1343.33 246.719V226.352H1349.35V256H1343.07L1330.96 235.633V256H1324.94ZM1359.64 247.406C1359.64 245.516 1359.78 244.055 1360.07 243.023C1360.41 241.935 1361.44 240.703 1363.16 239.328C1364.02 238.641 1364.74 237.953 1365.31 237.266C1365.94 236.578 1366.25 235.719 1366.25 234.688C1366.25 232.396 1365.28 231.107 1363.33 230.82C1361.44 230.534 1360.07 230.906 1359.21 231.938C1358.46 232.74 1358.06 233.943 1358 235.547C1356.46 235.547 1355.17 235.518 1354.14 235.461C1353.16 235.404 1352.68 234.602 1352.68 233.055C1352.68 232.195 1352.88 231.336 1353.28 230.477C1353.74 229.56 1354.31 228.786 1355 228.156C1356.2 227.068 1357.77 226.323 1359.72 225.922C1361.67 225.521 1363.59 225.549 1365.48 226.008C1367.37 226.466 1368.98 227.383 1370.29 228.758C1371.67 230.133 1372.36 232.023 1372.36 234.43C1372.36 236.32 1371.95 237.781 1371.15 238.812C1370.41 239.844 1369.58 240.732 1368.66 241.477C1367.74 242.164 1366.88 242.88 1366.08 243.625C1365.34 244.312 1364.99 245.315 1365.05 246.633C1365.05 246.805 1365.05 246.948 1365.05 247.062C1365.05 247.177 1365.05 247.292 1365.05 247.406H1359.64ZM1361.61 250.07H1365.39V256H1359.46V252.305C1359.46 250.815 1360.18 250.07 1361.61 250.07Z" fill="white"/>
<path d="M561.8 294.2L556.136 311H554.264L549.344 296.672L544.4 311H542.552L536.888 294.2H538.712L543.56 308.648L548.576 294.2H550.232L555.176 308.72L560.096 294.2H561.8ZM574.728 305.216H564.168C564.264 306.528 564.768 307.592 565.68 308.408C566.592 309.208 567.744 309.608 569.136 309.608C569.92 309.608 570.64 309.472 571.296 309.2C571.952 308.912 572.52 308.496 573 307.952L573.96 309.056C573.4 309.728 572.696 310.24 571.848 310.592C571.016 310.944 570.096 311.12 569.088 311.12C567.792 311.12 566.64 310.848 565.632 310.304C564.64 309.744 563.864 308.976 563.304 308C562.744 307.024 562.464 305.92 562.464 304.688C562.464 303.456 562.728 302.352 563.256 301.376C563.8 300.4 564.536 299.64 565.464 299.096C566.408 298.552 567.464 298.28 568.632 298.28C569.8 298.28 570.848 298.552 571.776 299.096C572.704 299.64 573.432 300.4 573.96 301.376C574.488 302.336 574.752 303.44 574.752 304.688L574.728 305.216ZM568.632 299.744C567.416 299.744 566.392 300.136 565.56 300.92C564.744 301.688 564.28 302.696 564.168 303.944H573.12C573.008 302.696 572.536 301.688 571.704 300.92C570.888 300.136 569.864 299.744 568.632 299.744ZM588.917 298.28C590.565 298.28 591.829 298.696 592.709 299.528C593.589 300.344 594.029 301.56 594.029 303.176V311H592.397V309.032C592.013 309.688 591.445 310.2 590.693 310.568C589.957 310.936 589.077 311.12 588.053 311.12C586.645 311.12 585.525 310.784 584.693 310.112C583.861 309.44 583.445 308.552 583.445 307.448C583.445 306.376 583.829 305.512 584.597 304.856C585.381 304.2 586.621 303.872 588.317 303.872H592.325V303.104C592.325 302.016 592.021 301.192 591.413 300.632C590.805 300.056 589.917 299.768 588.749 299.768C587.949 299.768 587.181 299.904 586.445 300.176C585.709 300.432 585.077 300.792 584.549 301.256L583.781 299.984C584.421 299.44 585.189 299.024 586.085 298.736C586.981 298.432 587.925 298.28 588.917 298.28ZM588.317 309.776C589.277 309.776 590.101 309.56 590.789 309.128C591.477 308.68 591.989 308.04 592.325 307.208V305.144H588.365C586.205 305.144 585.125 305.896 585.125 307.4C585.125 308.136 585.405 308.72 585.965 309.152C586.525 309.568 587.309 309.776 588.317 309.776ZM600.289 300.848C600.689 300 601.281 299.36 602.065 298.928C602.865 298.496 603.849 298.28 605.017 298.28V299.936L604.609 299.912C603.281 299.912 602.241 300.32 601.489 301.136C600.737 301.952 600.361 303.096 600.361 304.568V311H598.657V298.376H600.289V300.848ZM618.978 305.216H608.418C608.514 306.528 609.018 307.592 609.93 308.408C610.842 309.208 611.994 309.608 613.386 309.608C614.17 309.608 614.89 309.472 615.546 309.2C616.202 308.912 616.77 308.496 617.25 307.952L618.21 309.056C617.65 309.728 616.946 310.24 616.098 310.592C615.266 310.944 614.346 311.12 613.338 311.12C612.042 311.12 610.89 310.848 609.882 310.304C608.89 309.744 608.114 308.976 607.554 308C606.994 307.024 606.714 305.92 606.714 304.688C606.714 303.456 606.978 302.352 607.506 301.376C608.05 300.4 608.786 299.64 609.714 299.096C610.658 298.552 611.714 298.28 612.882 298.28C614.05 298.28 615.098 298.552 616.026 299.096C616.954 299.64 617.682 300.4 618.21 301.376C618.738 302.336 619.002 303.44 619.002 304.688L618.978 305.216ZM612.882 299.744C611.666 299.744 610.642 300.136 609.81 300.92C608.994 301.688 608.53 302.696 608.418 303.944H617.37C617.258 302.696 616.786 301.688 615.954 300.92C615.138 300.136 614.114 299.744 612.882 299.744ZM630.383 300.848C630.783 300 631.375 299.36 632.159 298.928C632.959 298.496 633.943 298.28 635.111 298.28V299.936L634.703 299.912C633.375 299.912 632.335 300.32 631.583 301.136C630.831 301.952 630.455 303.096 630.455 304.568V311H628.751V298.376H630.383V300.848ZM649.071 305.216H638.511C638.607 306.528 639.111 307.592 640.023 308.408C640.935 309.208 642.087 309.608 643.479 309.608C644.263 309.608 644.983 309.472 645.639 309.2C646.295 308.912 646.863 308.496 647.343 307.952L648.303 309.056C647.743 309.728 647.039 310.24 646.191 310.592C645.359 310.944 644.439 311.12 643.431 311.12C642.135 311.12 640.983 310.848 639.975 310.304C638.983 309.744 638.207 308.976 637.647 308C637.087 307.024 636.807 305.92 636.807 304.688C636.807 303.456 637.071 302.352 637.599 301.376C638.143 300.4 638.879 299.64 639.807 299.096C640.751 298.552 641.807 298.28 642.975 298.28C644.143 298.28 645.191 298.552 646.119 299.096C647.047 299.64 647.775 300.4 648.303 301.376C648.831 302.336 649.095 303.44 649.095 304.688L649.071 305.216ZM642.975 299.744C641.759 299.744 640.735 300.136 639.903 300.92C639.087 301.688 638.623 302.696 638.511 303.944H647.463C647.351 302.696 646.879 301.688 646.047 300.92C645.231 300.136 644.207 299.744 642.975 299.744ZM656.628 298.28C658.276 298.28 659.54 298.696 660.42 299.528C661.3 300.344 661.74 301.56 661.74 303.176V311H660.108V309.032C659.724 309.688 659.156 310.2 658.404 310.568C657.668 310.936 656.788 311.12 655.764 311.12C654.356 311.12 653.236 310.784 652.404 310.112C651.572 309.44 651.156 308.552 651.156 307.448C651.156 306.376 651.54 305.512 652.308 304.856C653.092 304.2 654.332 303.872 656.028 303.872H660.036V303.104C660.036 302.016 659.732 301.192 659.124 300.632C658.516 300.056 657.628 299.768 656.46 299.768C655.66 299.768 654.892 299.904 654.156 300.176C653.42 300.432 652.788 300.792 652.26 301.256L651.492 299.984C652.132 299.44 652.9 299.024 653.796 298.736C654.692 298.432 655.636 298.28 656.628 298.28ZM656.028 309.776C656.988 309.776 657.812 309.56 658.5 309.128C659.188 308.68 659.7 308.04 660.036 307.208V305.144H656.076C653.916 305.144 652.836 305.896 652.836 307.4C652.836 308.136 653.116 308.72 653.676 309.152C654.236 309.568 655.02 309.776 656.028 309.776ZM677.935 293.192V311H676.303V308.504C675.791 309.352 675.111 310 674.263 310.448C673.431 310.896 672.487 311.12 671.431 311.12C670.247 311.12 669.175 310.848 668.215 310.304C667.255 309.76 666.503 309 665.959 308.024C665.415 307.048 665.143 305.936 665.143 304.688C665.143 303.44 665.415 302.328 665.959 301.352C666.503 300.376 667.255 299.624 668.215 299.096C669.175 298.552 670.247 298.28 671.431 298.28C672.455 298.28 673.375 298.496 674.191 298.928C675.023 299.344 675.703 299.96 676.231 300.776V293.192H677.935ZM671.575 309.608C672.455 309.608 673.247 309.408 673.951 309.008C674.671 308.592 675.231 308.008 675.631 307.256C676.047 306.504 676.255 305.648 676.255 304.688C676.255 303.728 676.047 302.872 675.631 302.12C675.231 301.368 674.671 300.792 673.951 300.392C673.247 299.976 672.455 299.768 671.575 299.768C670.679 299.768 669.871 299.976 669.151 300.392C668.447 300.792 667.887 301.368 667.471 302.12C667.071 302.872 666.871 303.728 666.871 304.688C666.871 305.648 667.071 306.504 667.471 307.256C667.887 308.008 668.447 308.592 669.151 309.008C669.871 309.408 670.679 309.608 671.575 309.608ZM693.289 298.376L686.977 312.512C686.465 313.696 685.873 314.536 685.201 315.032C684.529 315.528 683.721 315.776 682.777 315.776C682.169 315.776 681.601 315.68 681.073 315.488C680.545 315.296 680.089 315.008 679.705 314.624L680.497 313.352C681.137 313.992 681.905 314.312 682.801 314.312C683.377 314.312 683.865 314.152 684.265 313.832C684.681 313.512 685.065 312.968 685.417 312.2L685.969 310.976L680.329 298.376H682.105L686.857 309.104L691.609 298.376H693.289ZM708.618 310.232C708.298 310.52 707.898 310.744 707.418 310.904C706.954 311.048 706.466 311.12 705.954 311.12C704.77 311.12 703.858 310.8 703.218 310.16C702.578 309.52 702.258 308.616 702.258 307.448V299.816H700.002V298.376H702.258V295.616H703.962V298.376H707.802V299.816H703.962V307.352C703.962 308.104 704.146 308.68 704.514 309.08C704.898 309.464 705.442 309.656 706.146 309.656C706.498 309.656 706.834 309.6 707.154 309.488C707.49 309.376 707.778 309.216 708.018 309.008L708.618 310.232ZM716.435 311.12C715.219 311.12 714.123 310.848 713.147 310.304C712.171 309.744 711.403 308.976 710.843 308C710.283 307.024 710.003 305.92 710.003 304.688C710.003 303.456 710.283 302.352 710.843 301.376C711.403 300.4 712.171 299.64 713.147 299.096C714.123 298.552 715.219 298.28 716.435 298.28C717.651 298.28 718.747 298.552 719.723 299.096C720.699 299.64 721.459 300.4 722.003 301.376C722.563 302.352 722.843 303.456 722.843 304.688C722.843 305.92 722.563 307.024 722.003 308C721.459 308.976 720.699 309.744 719.723 310.304C718.747 310.848 717.651 311.12 716.435 311.12ZM716.435 309.608C717.331 309.608 718.131 309.408 718.835 309.008C719.555 308.592 720.115 308.008 720.515 307.256C720.915 306.504 721.115 305.648 721.115 304.688C721.115 303.728 720.915 302.872 720.515 302.12C720.115 301.368 719.555 300.792 718.835 300.392C718.131 299.976 717.331 299.768 716.435 299.768C715.539 299.768 714.731 299.976 714.011 300.392C713.307 300.792 712.747 301.368 712.331 302.12C711.931 302.872 711.731 303.728 711.731 304.688C711.731 305.648 711.931 306.504 712.331 307.256C712.747 308.008 713.307 308.592 714.011 309.008C714.731 309.408 715.539 309.608 716.435 309.608ZM744.123 293.192V311H742.491V308.504C741.979 309.352 741.299 310 740.451 310.448C739.619 310.896 738.675 311.12 737.619 311.12C736.435 311.12 735.363 310.848 734.403 310.304C733.443 309.76 732.691 309 732.147 308.024C731.603 307.048 731.331 305.936 731.331 304.688C731.331 303.44 731.603 302.328 732.147 301.352C732.691 300.376 733.443 299.624 734.403 299.096C735.363 298.552 736.435 298.28 737.619 298.28C738.643 298.28 739.563 298.496 740.379 298.928C741.211 299.344 741.891 299.96 742.419 300.776V293.192H744.123ZM737.763 309.608C738.643 309.608 739.435 309.408 740.139 309.008C740.859 308.592 741.419 308.008 741.819 307.256C742.235 306.504 742.443 305.648 742.443 304.688C742.443 303.728 742.235 302.872 741.819 302.12C741.419 301.368 740.859 300.792 740.139 300.392C739.435 299.976 738.643 299.768 737.763 299.768C736.867 299.768 736.059 299.976 735.339 300.392C734.635 300.792 734.075 301.368 733.659 302.12C733.259 302.872 733.059 303.728 733.059 304.688C733.059 305.648 733.259 306.504 733.659 307.256C734.075 308.008 734.635 308.592 735.339 309.008C736.059 309.408 736.867 309.608 737.763 309.608ZM748.868 298.376H750.572V311H748.868V298.376ZM749.732 295.616C749.38 295.616 749.084 295.496 748.844 295.256C748.604 295.016 748.484 294.728 748.484 294.392C748.484 294.072 748.604 293.792 748.844 293.552C749.084 293.312 749.38 293.192 749.732 293.192C750.084 293.192 750.38 293.312 750.62 293.552C750.86 293.776 750.98 294.048 750.98 294.368C750.98 294.72 750.86 295.016 750.62 295.256C750.38 295.496 750.084 295.616 749.732 295.616ZM758.698 311.12C757.674 311.12 756.69 310.976 755.746 310.688C754.818 310.384 754.09 310.008 753.562 309.56L754.33 308.216C754.858 308.632 755.522 308.976 756.322 309.248C757.122 309.504 757.954 309.632 758.818 309.632C759.97 309.632 760.818 309.456 761.362 309.104C761.922 308.736 762.202 308.224 762.202 307.568C762.202 307.104 762.05 306.744 761.746 306.488C761.442 306.216 761.058 306.016 760.594 305.888C760.13 305.744 759.514 305.608 758.746 305.48C757.722 305.288 756.898 305.096 756.274 304.904C755.65 304.696 755.114 304.352 754.666 303.872C754.234 303.392 754.018 302.728 754.018 301.88C754.018 300.824 754.458 299.96 755.338 299.288C756.218 298.616 757.442 298.28 759.01 298.28C759.826 298.28 760.642 298.392 761.458 298.616C762.274 298.824 762.946 299.104 763.474 299.456L762.73 300.824C761.69 300.104 760.45 299.744 759.01 299.744C757.922 299.744 757.098 299.936 756.538 300.32C755.994 300.704 755.722 301.208 755.722 301.832C755.722 302.312 755.874 302.696 756.178 302.984C756.498 303.272 756.89 303.488 757.354 303.632C757.818 303.76 758.458 303.896 759.274 304.04C760.282 304.232 761.09 304.424 761.698 304.616C762.306 304.808 762.826 305.136 763.258 305.6C763.69 306.064 763.906 306.704 763.906 307.52C763.906 308.624 763.442 309.504 762.514 310.16C761.602 310.8 760.33 311.12 758.698 311.12ZM772.288 311.12C771.04 311.12 769.92 310.848 768.928 310.304C767.952 309.76 767.184 309 766.624 308.024C766.064 307.032 765.784 305.92 765.784 304.688C765.784 303.456 766.064 302.352 766.624 301.376C767.184 300.4 767.952 299.64 768.928 299.096C769.92 298.552 771.04 298.28 772.288 298.28C773.376 298.28 774.344 298.496 775.192 298.928C776.056 299.344 776.736 299.96 777.232 300.776L775.96 301.64C775.544 301.016 775.016 300.552 774.376 300.248C773.736 299.928 773.04 299.768 772.288 299.768C771.376 299.768 770.552 299.976 769.816 300.392C769.096 300.792 768.528 301.368 768.112 302.12C767.712 302.872 767.512 303.728 767.512 304.688C767.512 305.664 767.712 306.528 768.112 307.28C768.528 308.016 769.096 308.592 769.816 309.008C770.552 309.408 771.376 309.608 772.288 309.608C773.04 309.608 773.736 309.456 774.376 309.152C775.016 308.848 775.544 308.384 775.96 307.76L777.232 308.624C776.736 309.44 776.056 310.064 775.192 310.496C774.328 310.912 773.36 311.12 772.288 311.12ZM791.955 298.376V311H790.323V308.696C789.875 309.464 789.259 310.064 788.475 310.496C787.691 310.912 786.795 311.12 785.787 311.12C784.139 311.12 782.835 310.664 781.875 309.752C780.931 308.824 780.459 307.472 780.459 305.696V298.376H782.163V305.528C782.163 306.856 782.491 307.864 783.147 308.552C783.803 309.24 784.739 309.584 785.955 309.584C787.283 309.584 788.331 309.184 789.099 308.384C789.867 307.568 790.251 306.44 790.251 305V298.376H791.955ZM800.112 311.12C799.088 311.12 798.104 310.976 797.16 310.688C796.232 310.384 795.504 310.008 794.976 309.56L795.744 308.216C796.272 308.632 796.936 308.976 797.736 309.248C798.536 309.504 799.368 309.632 800.232 309.632C801.384 309.632 802.232 309.456 802.776 309.104C803.336 308.736 803.616 308.224 803.616 307.568C803.616 307.104 803.464 306.744 803.16 306.488C802.856 306.216 802.472 306.016 802.008 305.888C801.544 305.744 800.928 305.608 800.16 305.48C799.136 305.288 798.312 305.096 797.688 304.904C797.064 304.696 796.528 304.352 796.08 303.872C795.648 303.392 795.432 302.728 795.432 301.88C795.432 300.824 795.872 299.96 796.752 299.288C797.632 298.616 798.856 298.28 800.424 298.28C801.24 298.28 802.056 298.392 802.872 298.616C803.688 298.824 804.36 299.104 804.888 299.456L804.144 300.824C803.104 300.104 801.864 299.744 800.424 299.744C799.336 299.744 798.512 299.936 797.952 300.32C797.408 300.704 797.136 301.208 797.136 301.832C797.136 302.312 797.288 302.696 797.592 302.984C797.912 303.272 798.304 303.488 798.768 303.632C799.232 303.76 799.872 303.896 800.688 304.04C801.696 304.232 802.504 304.424 803.112 304.616C803.72 304.808 804.24 305.136 804.672 305.6C805.104 306.064 805.32 306.704 805.32 307.52C805.32 308.624 804.856 309.504 803.928 310.16C803.016 310.8 801.744 311.12 800.112 311.12ZM811.854 311.12C810.83 311.12 809.846 310.976 808.902 310.688C807.974 310.384 807.246 310.008 806.718 309.56L807.486 308.216C808.014 308.632 808.678 308.976 809.478 309.248C810.278 309.504 811.11 309.632 811.974 309.632C813.126 309.632 813.974 309.456 814.518 309.104C815.078 308.736 815.358 308.224 815.358 307.568C815.358 307.104 815.206 306.744 814.902 306.488C814.598 306.216 814.214 306.016 813.75 305.888C813.286 305.744 812.67 305.608 811.902 305.48C810.878 305.288 810.054 305.096 809.43 304.904C808.806 304.696 808.27 304.352 807.822 303.872C807.39 303.392 807.174 302.728 807.174 301.88C807.174 300.824 807.614 299.96 808.494 299.288C809.374 298.616 810.598 298.28 812.166 298.28C812.982 298.28 813.798 298.392 814.614 298.616C815.43 298.824 816.102 299.104 816.63 299.456L815.886 300.824C814.846 300.104 813.606 299.744 812.166 299.744C811.078 299.744 810.254 299.936 809.694 300.32C809.15 300.704 808.878 301.208 808.878 301.832C808.878 302.312 809.03 302.696 809.334 302.984C809.654 303.272 810.046 303.488 810.51 303.632C810.974 303.76 811.614 303.896 812.43 304.04C813.438 304.232 814.246 304.424 814.854 304.616C815.462 304.808 815.982 305.136 816.414 305.6C816.846 306.064 817.062 306.704 817.062 307.52C817.062 308.624 816.598 309.504 815.67 310.16C814.758 310.8 813.486 311.12 811.854 311.12ZM837.101 298.376L830.789 312.512C830.277 313.696 829.685 314.536 829.013 315.032C828.341 315.528 827.533 315.776 826.589 315.776C825.981 315.776 825.413 315.68 824.885 315.488C824.357 315.296 823.901 315.008 823.517 314.624L824.309 313.352C824.949 313.992 825.717 314.312 826.613 314.312C827.189 314.312 827.677 314.152 828.077 313.832C828.493 313.512 828.877 312.968 829.229 312.2L829.781 310.976L824.141 298.376H825.917L830.669 309.104L835.421 298.376H837.101ZM844.31 311.12C843.094 311.12 841.998 310.848 841.022 310.304C840.046 309.744 839.278 308.976 838.718 308C838.158 307.024 837.878 305.92 837.878 304.688C837.878 303.456 838.158 302.352 838.718 301.376C839.278 300.4 840.046 299.64 841.022 299.096C841.998 298.552 843.094 298.28 844.31 298.28C845.526 298.28 846.622 298.552 847.598 299.096C848.574 299.64 849.334 300.4 849.878 301.376C850.438 302.352 850.718 303.456 850.718 304.688C850.718 305.92 850.438 307.024 849.878 308C849.334 308.976 848.574 309.744 847.598 310.304C846.622 310.848 845.526 311.12 844.31 311.12ZM844.31 309.608C845.206 309.608 846.006 309.408 846.71 309.008C847.43 308.592 847.99 308.008 848.39 307.256C848.79 306.504 848.99 305.648 848.99 304.688C848.99 303.728 848.79 302.872 848.39 302.12C847.99 301.368 847.43 300.792 846.71 300.392C846.006 299.976 845.206 299.768 844.31 299.768C843.414 299.768 842.606 299.976 841.886 300.392C841.182 300.792 840.622 301.368 840.206 302.12C839.806 302.872 839.606 303.728 839.606 304.688C839.606 305.648 839.806 306.504 840.206 307.256C840.622 308.008 841.182 308.592 841.886 309.008C842.606 309.408 843.414 309.608 844.31 309.608ZM865.572 298.376V311H863.94V308.696C863.492 309.464 862.876 310.064 862.092 310.496C861.308 310.912 860.412 311.12 859.404 311.12C857.756 311.12 856.452 310.664 855.492 309.752C854.548 308.824 854.076 307.472 854.076 305.696V298.376H855.78V305.528C855.78 306.856 856.108 307.864 856.764 308.552C857.42 309.24 858.356 309.584 859.572 309.584C860.9 309.584 861.948 309.184 862.716 308.384C863.484 307.568 863.868 306.44 863.868 305V298.376H865.572ZM871.977 300.848C872.377 300 872.969 299.36 873.753 298.928C874.553 298.496 875.537 298.28 876.705 298.28V299.936L876.297 299.912C874.969 299.912 873.929 300.32 873.177 301.136C872.425 301.952 872.049 303.096 872.049 304.568V311H870.345V298.376H871.977V300.848ZM892.763 298.28C893.947 298.28 895.019 298.552 895.979 299.096C896.939 299.624 897.691 300.376 898.235 301.352C898.779 302.328 899.051 303.44 899.051 304.688C899.051 305.952 898.779 307.072 898.235 308.048C897.691 309.024 896.939 309.784 895.979 310.328C895.035 310.856 893.963 311.12 892.763 311.12C891.739 311.12 890.811 310.912 889.979 310.496C889.163 310.064 888.491 309.44 887.963 308.624V315.656H886.259V298.376H887.891V300.872C888.403 300.04 889.075 299.4 889.907 298.952C890.755 298.504 891.707 298.28 892.763 298.28ZM892.643 309.608C893.523 309.608 894.323 309.408 895.043 309.008C895.763 308.592 896.323 308.008 896.723 307.256C897.139 306.504 897.347 305.648 897.347 304.688C897.347 303.728 897.139 302.88 896.723 302.144C896.323 301.392 895.763 300.808 895.043 300.392C894.323 299.976 893.523 299.768 892.643 299.768C891.747 299.768 890.939 299.976 890.219 300.392C889.515 300.808 888.955 301.392 888.539 302.144C888.139 302.88 887.939 303.728 887.939 304.688C887.939 305.648 888.139 306.504 888.539 307.256C888.955 308.008 889.515 308.592 890.219 309.008C890.939 309.408 891.747 309.608 892.643 309.608ZM904.157 300.848C904.557 300 905.149 299.36 905.933 298.928C906.733 298.496 907.717 298.28 908.885 298.28V299.936L908.477 299.912C907.149 299.912 906.109 300.32 905.357 301.136C904.605 301.952 904.229 303.096 904.229 304.568V311H902.525V298.376H904.157V300.848ZM917.013 311.12C915.797 311.12 914.701 310.848 913.725 310.304C912.749 309.744 911.981 308.976 911.421 308C910.861 307.024 910.581 305.92 910.581 304.688C910.581 303.456 910.861 302.352 911.421 301.376C911.981 300.4 912.749 299.64 913.725 299.096C914.701 298.552 915.797 298.28 917.013 298.28C918.229 298.28 919.325 298.552 920.301 299.096C921.277 299.64 922.037 300.4 922.581 301.376C923.141 302.352 923.421 303.456 923.421 304.688C923.421 305.92 923.141 307.024 922.581 308C922.037 308.976 921.277 309.744 920.301 310.304C919.325 310.848 918.229 311.12 917.013 311.12ZM917.013 309.608C917.909 309.608 918.709 309.408 919.413 309.008C920.133 308.592 920.693 308.008 921.093 307.256C921.493 306.504 921.693 305.648 921.693 304.688C921.693 303.728 921.493 302.872 921.093 302.12C920.693 301.368 920.133 300.792 919.413 300.392C918.709 299.976 917.909 299.768 917.013 299.768C916.117 299.768 915.309 299.976 914.589 300.392C913.885 300.792 913.325 301.368 912.909 302.12C912.509 302.872 912.309 303.728 912.309 304.688C912.309 305.648 912.509 306.504 912.909 307.256C913.325 308.008 913.885 308.592 914.589 309.008C915.309 309.408 916.117 309.608 917.013 309.608ZM925.028 315.776C924.5 315.776 924.004 315.704 923.54 315.56C923.06 315.432 922.668 315.232 922.364 314.96L922.964 313.664C923.46 314.096 924.116 314.312 924.932 314.312C925.604 314.312 926.116 314.112 926.468 313.712C926.836 313.312 927.02 312.72 927.02 311.936V298.376H928.724V311.936C928.724 313.12 928.404 314.056 927.764 314.744C927.124 315.432 926.212 315.776 925.028 315.776ZM927.884 295.592C927.532 295.592 927.236 295.472 926.996 295.232C926.756 294.992 926.636 294.704 926.636 294.368C926.636 294.048 926.756 293.768 926.996 293.528C927.236 293.288 927.532 293.168 927.884 293.168C928.236 293.168 928.532 293.288 928.772 293.528C929.012 293.752 929.132 294.024 929.132 294.344C929.132 294.696 929.012 294.992 928.772 295.232C928.532 295.472 928.236 295.592 927.884 295.592ZM944.478 305.216H933.918C934.014 306.528 934.518 307.592 935.43 308.408C936.342 309.208 937.494 309.608 938.886 309.608C939.67 309.608 940.39 309.472 941.046 309.2C941.702 308.912 942.27 308.496 942.75 307.952L943.71 309.056C943.15 309.728 942.446 310.24 941.598 310.592C940.766 310.944 939.846 311.12 938.838 311.12C937.542 311.12 936.39 310.848 935.382 310.304C934.39 309.744 933.614 308.976 933.054 308C932.494 307.024 932.214 305.92 932.214 304.688C932.214 303.456 932.478 302.352 933.006 301.376C933.55 300.4 934.286 299.64 935.214 299.096C936.158 298.552 937.214 298.28 938.382 298.28C939.55 298.28 940.598 298.552 941.526 299.096C942.454 299.64 943.182 300.4 943.71 301.376C944.238 302.336 944.502 303.44 944.502 304.688L944.478 305.216ZM938.382 299.744C937.166 299.744 936.142 300.136 935.31 300.92C934.494 301.688 934.03 302.696 933.918 303.944H942.87C942.758 302.696 942.286 301.688 941.454 300.92C940.638 300.136 939.614 299.744 938.382 299.744ZM953.202 311.12C951.954 311.12 950.834 310.848 949.842 310.304C948.866 309.76 948.098 309 947.538 308.024C946.978 307.032 946.698 305.92 946.698 304.688C946.698 303.456 946.978 302.352 947.538 301.376C948.098 300.4 948.866 299.64 949.842 299.096C950.834 298.552 951.954 298.28 953.202 298.28C954.29 298.28 955.258 298.496 956.106 298.928C956.97 299.344 957.65 299.96 958.146 300.776L956.874 301.64C956.458 301.016 955.93 300.552 955.29 300.248C954.65 299.928 953.954 299.768 953.202 299.768C952.29 299.768 951.466 299.976 950.73 300.392C950.01 300.792 949.442 301.368 949.026 302.12C948.626 302.872 948.426 303.728 948.426 304.688C948.426 305.664 948.626 306.528 949.026 307.28C949.442 308.016 950.01 308.592 950.73 309.008C951.466 309.408 952.29 309.608 953.202 309.608C953.954 309.608 954.65 309.456 955.29 309.152C955.93 308.848 956.458 308.384 956.874 307.76L958.146 308.624C957.65 309.44 956.97 310.064 956.106 310.496C955.242 310.912 954.274 311.12 953.202 311.12ZM968.282 310.232C967.962 310.52 967.562 310.744 967.082 310.904C966.618 311.048 966.13 311.12 965.618 311.12C964.434 311.12 963.522 310.8 962.882 310.16C962.242 309.52 961.922 308.616 961.922 307.448V299.816H959.666V298.376H961.922V295.616H963.626V298.376H967.466V299.816H963.626V307.352C963.626 308.104 963.81 308.68 964.178 309.08C964.562 309.464 965.106 309.656 965.81 309.656C966.162 309.656 966.498 309.6 966.818 309.488C967.154 309.376 967.442 309.216 967.682 309.008L968.282 310.232ZM979.297 300.848C979.697 300 980.289 299.36 981.073 298.928C981.873 298.496 982.857 298.28 984.025 298.28V299.936L983.617 299.912C982.289 299.912 981.249 300.32 980.497 301.136C979.745 301.952 979.369 303.096 979.369 304.568V311H977.665V298.376H979.297V300.848ZM997.985 305.216H987.425C987.521 306.528 988.025 307.592 988.937 308.408C989.849 309.208 991.001 309.608 992.393 309.608C993.177 309.608 993.897 309.472 994.553 309.2C995.209 308.912 995.777 308.496 996.257 307.952L997.217 309.056C996.657 309.728 995.953 310.24 995.105 310.592C994.273 310.944 993.353 311.12 992.345 311.12C991.049 311.12 989.897 310.848 988.889 310.304C987.897 309.744 987.121 308.976 986.561 308C986.001 307.024 985.721 305.92 985.721 304.688C985.721 303.456 985.985 302.352 986.513 301.376C987.057 300.4 987.793 299.64 988.721 299.096C989.665 298.552 990.721 298.28 991.889 298.28C993.057 298.28 994.105 298.552 995.033 299.096C995.961 299.64 996.689 300.4 997.217 301.376C997.745 302.336 998.009 303.44 998.009 304.688L997.985 305.216ZM991.889 299.744C990.673 299.744 989.649 300.136 988.817 300.92C988.001 301.688 987.537 302.696 987.425 303.944H996.377C996.265 302.696 995.793 301.688 994.961 300.92C994.145 300.136 993.121 299.744 991.889 299.744ZM1013 298.376V315.656H1011.29V308.624C1010.77 309.44 1010.09 310.064 1009.25 310.496C1008.44 310.912 1007.52 311.12 1006.49 311.12C1005.29 311.12 1004.21 310.856 1003.25 310.328C1002.31 309.784 1001.57 309.024 1001.02 308.048C1000.48 307.072 1000.21 305.952 1000.21 304.688C1000.21 303.44 1000.48 302.328 1001.02 301.352C1001.57 300.376 1002.32 299.624 1003.28 299.096C1004.24 298.552 1005.31 298.28 1006.49 298.28C1007.55 298.28 1008.49 298.504 1009.33 298.952C1010.17 299.4 1010.85 300.04 1011.37 300.872V298.376H1013ZM1006.64 309.608C1007.52 309.608 1008.31 309.408 1009.01 309.008C1009.73 308.592 1010.29 308.008 1010.69 307.256C1011.11 306.504 1011.32 305.648 1011.32 304.688C1011.32 303.728 1011.11 302.88 1010.69 302.144C1010.29 301.392 1009.73 300.808 1009.01 300.392C1008.31 299.976 1007.52 299.768 1006.64 299.768C1005.74 299.768 1004.93 299.976 1004.21 300.392C1003.51 300.808 1002.95 301.392 1002.53 302.144C1002.13 302.88 1001.93 303.728 1001.93 304.688C1001.93 305.648 1002.13 306.504 1002.53 307.256C1002.95 308.008 1003.51 308.592 1004.21 309.008C1004.93 309.408 1005.74 309.608 1006.64 309.608ZM1029.12 298.376V311H1027.49V308.696C1027.04 309.464 1026.42 310.064 1025.64 310.496C1024.86 310.912 1023.96 311.12 1022.95 311.12C1021.3 311.12 1020 310.664 1019.04 309.752C1018.1 308.824 1017.62 307.472 1017.62 305.696V298.376H1019.33V305.528C1019.33 306.856 1019.66 307.864 1020.31 308.552C1020.97 309.24 1021.9 309.584 1023.12 309.584C1024.45 309.584 1025.5 309.184 1026.26 308.384C1027.03 307.568 1027.42 306.44 1027.42 305V298.376H1029.12ZM1033.89 298.376H1035.6V311H1033.89V298.376ZM1034.76 295.616C1034.4 295.616 1034.11 295.496 1033.87 295.256C1033.63 295.016 1033.51 294.728 1033.51 294.392C1033.51 294.072 1033.63 293.792 1033.87 293.552C1034.11 293.312 1034.4 293.192 1034.76 293.192C1035.11 293.192 1035.4 293.312 1035.64 293.552C1035.88 293.776 1036 294.048 1036 294.368C1036 294.72 1035.88 295.016 1035.64 295.256C1035.4 295.496 1035.11 295.616 1034.76 295.616ZM1041.97 300.848C1042.37 300 1042.96 299.36 1043.75 298.928C1044.55 298.496 1045.53 298.28 1046.7 298.28V299.936L1046.29 299.912C1044.96 299.912 1043.92 300.32 1043.17 301.136C1042.42 301.952 1042.04 303.096 1042.04 304.568V311H1040.34V298.376H1041.97V300.848ZM1060.66 305.216H1050.1C1050.19 306.528 1050.7 307.592 1051.61 308.408C1052.52 309.208 1053.67 309.608 1055.07 309.608C1055.85 309.608 1056.57 309.472 1057.23 309.2C1057.88 308.912 1058.45 308.496 1058.93 307.952L1059.89 309.056C1059.33 309.728 1058.63 310.24 1057.78 310.592C1056.95 310.944 1056.03 311.12 1055.02 311.12C1053.72 311.12 1052.57 310.848 1051.56 310.304C1050.57 309.744 1049.79 308.976 1049.23 308C1048.67 307.024 1048.39 305.92 1048.39 304.688C1048.39 303.456 1048.66 302.352 1049.19 301.376C1049.73 300.4 1050.47 299.64 1051.39 299.096C1052.34 298.552 1053.39 298.28 1054.56 298.28C1055.73 298.28 1056.78 298.552 1057.71 299.096C1058.63 299.64 1059.36 300.4 1059.89 301.376C1060.42 302.336 1060.68 303.44 1060.68 304.688L1060.66 305.216ZM1054.56 299.744C1053.35 299.744 1052.32 300.136 1051.49 300.92C1050.67 301.688 1050.21 302.696 1050.1 303.944H1059.05C1058.94 302.696 1058.47 301.688 1057.63 300.92C1056.82 300.136 1055.79 299.744 1054.56 299.744ZM1079.89 298.28C1081.48 298.28 1082.72 298.736 1083.61 299.648C1084.53 300.56 1084.98 301.904 1084.98 303.68V311H1083.28V303.848C1083.28 302.536 1082.96 301.536 1082.32 300.848C1081.69 300.16 1080.81 299.816 1079.65 299.816C1078.34 299.816 1077.31 300.224 1076.56 301.04C1075.81 301.84 1075.43 302.952 1075.43 304.376V311H1073.73V303.848C1073.73 302.536 1073.41 301.536 1072.77 300.848C1072.14 300.16 1071.25 299.816 1070.08 299.816C1068.78 299.816 1067.75 300.224 1066.98 301.04C1066.23 301.84 1065.85 302.952 1065.85 304.376V311H1064.15V298.376H1065.78V300.68C1066.23 299.912 1066.85 299.32 1067.65 298.904C1068.45 298.488 1069.37 298.28 1070.41 298.28C1071.47 298.28 1072.38 298.504 1073.15 298.952C1073.93 299.4 1074.52 300.064 1074.9 300.944C1075.37 300.112 1076.03 299.464 1076.89 299C1077.77 298.52 1078.77 298.28 1079.89 298.28ZM1100.64 305.216H1090.08C1090.18 306.528 1090.68 307.592 1091.59 308.408C1092.51 309.208 1093.66 309.608 1095.05 309.608C1095.83 309.608 1096.55 309.472 1097.21 309.2C1097.87 308.912 1098.43 308.496 1098.91 307.952L1099.87 309.056C1099.31 309.728 1098.61 310.24 1097.76 310.592C1096.93 310.944 1096.01 311.12 1095 311.12C1093.71 311.12 1092.55 310.848 1091.55 310.304C1090.55 309.744 1089.78 308.976 1089.22 308C1088.66 307.024 1088.38 305.92 1088.38 304.688C1088.38 303.456 1088.64 302.352 1089.17 301.376C1089.71 300.4 1090.45 299.64 1091.38 299.096C1092.32 298.552 1093.38 298.28 1094.55 298.28C1095.71 298.28 1096.76 298.552 1097.69 299.096C1098.62 299.64 1099.35 300.4 1099.87 301.376C1100.4 302.336 1100.67 303.44 1100.67 304.688L1100.64 305.216ZM1094.55 299.744C1093.33 299.744 1092.31 300.136 1091.47 300.92C1090.66 301.688 1090.19 302.696 1090.08 303.944H1099.03C1098.92 302.696 1098.45 301.688 1097.62 300.92C1096.8 300.136 1095.78 299.744 1094.55 299.744ZM1110.57 298.28C1112.15 298.28 1113.41 298.744 1114.33 299.672C1115.28 300.584 1115.75 301.92 1115.75 303.68V311H1114.05V303.848C1114.05 302.536 1113.72 301.536 1113.06 300.848C1112.41 300.16 1111.47 299.816 1110.25 299.816C1108.89 299.816 1107.81 300.224 1107.01 301.04C1106.23 301.84 1105.84 302.952 1105.84 304.376V311H1104.13V298.376H1105.77V300.704C1106.23 299.936 1106.87 299.344 1107.69 298.928C1108.52 298.496 1109.48 298.28 1110.57 298.28ZM1127.02 310.232C1126.7 310.52 1126.3 310.744 1125.82 310.904C1125.36 311.048 1124.87 311.12 1124.36 311.12C1123.18 311.12 1122.26 310.8 1121.62 310.16C1120.98 309.52 1120.66 308.616 1120.66 307.448V299.816H1118.41V298.376H1120.66V295.616H1122.37V298.376H1126.21V299.816H1122.37V307.352C1122.37 308.104 1122.55 308.68 1122.92 309.08C1123.3 309.464 1123.85 309.656 1124.55 309.656C1124.9 309.656 1125.24 309.6 1125.56 309.488C1125.9 309.376 1126.18 309.216 1126.42 309.008L1127.02 310.232ZM1133.51 311.12C1132.49 311.12 1131.5 310.976 1130.56 310.688C1129.63 310.384 1128.9 310.008 1128.37 309.56L1129.14 308.216C1129.67 308.632 1130.33 308.976 1131.13 309.248C1131.93 309.504 1132.77 309.632 1133.63 309.632C1134.78 309.632 1135.63 309.456 1136.17 309.104C1136.73 308.736 1137.01 308.224 1137.01 307.568C1137.01 307.104 1136.86 306.744 1136.56 306.488C1136.25 306.216 1135.87 306.016 1135.41 305.888C1134.94 305.744 1134.33 305.608 1133.56 305.48C1132.53 305.288 1131.71 305.096 1131.09 304.904C1130.46 304.696 1129.93 304.352 1129.48 303.872C1129.05 303.392 1128.83 302.728 1128.83 301.88C1128.83 300.824 1129.27 299.96 1130.15 299.288C1131.03 298.616 1132.25 298.28 1133.82 298.28C1134.64 298.28 1135.45 298.392 1136.27 298.616C1137.09 298.824 1137.76 299.104 1138.29 299.456L1137.54 300.824C1136.5 300.104 1135.26 299.744 1133.82 299.744C1132.73 299.744 1131.91 299.936 1131.35 300.32C1130.81 300.704 1130.53 301.208 1130.53 301.832C1130.53 302.312 1130.69 302.696 1130.99 302.984C1131.31 303.272 1131.7 303.488 1132.17 303.632C1132.63 303.76 1133.27 303.896 1134.09 304.04C1135.09 304.232 1135.9 304.424 1136.51 304.616C1137.12 304.808 1137.64 305.136 1138.07 305.6C1138.5 306.064 1138.72 306.704 1138.72 307.52C1138.72 308.624 1138.25 309.504 1137.33 310.16C1136.41 310.8 1135.14 311.12 1133.51 311.12Z" fill="white"/>
</g>
</svg>
