<svg width="308" height="270" viewBox="0 0 308 270" fill="none" xmlns="http://www.w3.org/2000/svg">
<path opacity="0.04" d="M63.2062 217.059C105.032 253.251 157.549 258.76 195.978 241.058C234.406 223.355 229.935 197.652 216.493 175.976C212.301 169.256 290.256 152.744 287.784 145.036C282.404 128.168 278.694 125.19 269.241 110.712C261.07 98.1804 192.155 88.142 181.471 78.0951C176.792 73.7479 160.995 31.6751 114.057 14.1276C73.946 -0.867892 40.7201 27.3557 29.2855 58.217C17.8508 89.0784 5.93228 167.499 63.2062 217.059Z" fill="#276ED8"/>
<path opacity="0.2" d="M301.008 121.298L307.234 120.127V114.545L301.008 113.472C300.53 111.178 299.622 109.032 298.373 107.129L301.945 101.888L297.992 97.9356L292.83 101.585C290.927 100.336 288.79 99.4385 286.487 98.9603L285.316 92.7341H279.734L278.66 98.9603C276.367 99.4385 274.22 100.346 272.317 101.595L267.086 98.0235L263.134 101.976L266.783 107.138C265.534 109.041 264.636 111.188 264.158 113.482L257.932 114.653V120.235L264.158 121.308C264.636 123.611 265.544 125.749 266.793 127.652L263.221 132.882L267.174 136.835L272.346 133.185C274.249 134.434 276.396 135.342 278.689 135.81L279.86 142.036H285.442L286.516 135.81C288.819 135.332 290.956 134.424 292.859 133.175L298.09 136.747L302.042 132.794L298.393 127.632C299.632 125.739 300.53 123.602 301.008 121.298ZM282.583 128.949C276.201 128.949 271.029 123.767 271.029 117.395C271.029 111.022 276.201 105.84 282.583 105.84C288.965 105.84 294.138 111.013 294.138 117.395C294.138 123.777 288.965 128.949 282.583 128.949Z" fill="#84B5FF"/>
<path d="M176.477 130.51V192.861C176.477 195.964 179.001 198.483 182.112 198.483H259.442C262.552 198.483 265.077 195.964 265.077 192.861V130.51C265.077 127.407 262.552 124.887 259.442 124.887H182.106C178.995 124.894 176.477 127.407 176.477 130.51ZM259.521 195.599H220.777H182.032C180.88 195.599 179.947 194.668 179.947 193.518V129.853C179.947 128.703 180.88 127.772 182.032 127.772H259.521C260.674 127.772 261.607 128.703 261.607 129.853V193.518C261.607 194.668 260.674 195.599 259.521 195.599Z" fill="#66D6A0"/>
<path d="M257.868 54.1499C249.615 54.1499 242.927 60.8378 242.927 69.0906C242.927 77.3433 249.615 84.0312 257.868 84.0312C266.121 84.0312 272.809 77.3433 272.809 69.0906C272.809 60.8378 266.121 54.1499 257.868 54.1499ZM257.868 80.3086C251.666 80.3086 246.643 75.2855 246.643 69.0834C246.643 62.8814 251.666 57.8583 257.868 57.8583C264.07 57.8583 269.093 62.8814 269.093 69.0834C269.093 75.2855 264.07 80.3086 257.868 80.3086Z" fill="#66D6A0"/>
<path d="M224.832 79.0228V174.047C224.832 176.491 222.853 178.47 220.409 178.47H75.5038C73.0602 178.47 71.0809 176.491 71.0809 174.047V79.0228C71.0809 73.3853 75.6539 68.8052 81.2986 68.8052H214.614C220.259 68.8052 224.832 73.3853 224.832 79.0228Z" fill="white" stroke="#84B5FF" stroke-miterlimit="10"/>
<path d="M142.283 91.5349H125.036V92.9842H142.283V91.5349Z" fill="#84B5FF"/>
<path d="M162.511 91.5347H145.265V92.984H162.511V91.5347Z" fill="#06B25F"/>
<path d="M157.108 99.3562H130.365V100.806H157.108V99.3562Z" fill="#276ED8"/>
<path d="M185.116 99.3562H171.526V100.806H185.116V99.3562Z" fill="#84B5FF"/>
<path d="M151.38 107.167H139.637V108.617H151.38V107.167Z" fill="#06B25F"/>
<path d="M207.129 107.167H168.169V108.617H207.129V107.167Z" fill="#06B25F"/>
<path d="M203.285 114.985H158.76V116.434H203.285V114.985Z" fill="#276ED8"/>
<path d="M151.33 122.796H137.628V124.246H151.33V122.796Z" fill="#84B5FF"/>
<path d="M180.897 122.796H167.195V124.246H180.897V122.796Z" fill="#276ED8"/>
<path d="M144.966 163.352H125.037V164.802H144.966V163.352Z" fill="#84B5FF"/>
<path d="M181.871 163.352H161.942V164.802H181.871V163.352Z" fill="#06B25F"/>
<path d="M208.065 163.352H188.135V164.802H208.065V163.352Z" fill="#84B5FF"/>
<path d="M169.326 155.528H130.366V156.977H169.326V155.528Z" fill="#276ED8"/>
<path d="M224.35 155.528H185.39V156.977H224.35V155.528Z" fill="#84B5FF"/>
<path d="M178.299 147.719H139.638V149.169H178.299V147.719Z" fill="#84B5FF"/>
<path d="M202.424 147.719H191.667V149.169H202.424V147.719Z" fill="#06B25F"/>
<path d="M151.668 139.899H137.117V141.348H151.668V139.899Z" fill="#06B25F"/>
<path d="M183.943 139.899H169.392V141.348H183.943V139.899Z" fill="#276ED8"/>
<path d="M207.865 139.899H193.315V141.348H207.865V139.899Z" fill="#84B5FF"/>
<path d="M184.392 132.091H163.989V133.54H184.392V132.091Z" fill="#06B25F"/>
<path d="M146.289 132.091H125.885V133.54H146.289V132.091Z" fill="#276ED8"/>
<path d="M120.232 90.1489H118.373V92.0105H120.232V90.1489Z" fill="#84B5FF"/>
<path d="M120.231 158.292H118.372V154.506H120.231V158.292ZM120.231 148.821H118.372V145.036H120.231V148.821ZM120.231 139.351H118.372V135.565H120.231V139.351ZM120.231 129.88H118.372V126.095H120.231V129.88ZM120.231 120.41H118.372V116.624H120.231V120.41ZM120.231 110.94H118.372V107.154H120.231V110.94ZM120.231 101.469H118.372V97.6833H120.231V101.469Z" fill="#84B5FF"/>
<path d="M120.232 163.975H118.373V165.837H120.232V163.975Z" fill="#84B5FF"/>
<path opacity="0.7" d="M70.7305 82.3003C70.7305 78.9866 73.4168 76.3003 76.7305 76.3003H110.744V178.477H76.7305C73.4168 178.477 70.7305 175.791 70.7305 172.477V82.3003Z" fill="#84B5FF"/>
<path d="M91.1768 92.9653H73.9307V94.4146H91.1768V92.9653Z" fill="#06B25F"/>
<path d="M104.377 101.821H77.6339V103.271H104.377V101.821Z" fill="#84B5FF"/>
<path d="M104.377 110.679H77.6339V112.128H104.377V110.679Z" fill="#84B5FF"/>
<path d="M104.377 119.536H77.6339V120.985H104.377V119.536Z" fill="#84B5FF"/>
<path d="M104.377 128.391H77.6339V129.84H104.377V128.391Z" fill="#84B5FF"/>
<path d="M105.765 146.103H79.0225V147.552H105.765V146.103Z" fill="#84B5FF"/>
<path d="M105.765 154.961H79.0225V156.41H105.765V154.961Z" fill="#84B5FF"/>
<path d="M105.765 163.815H79.0225V165.264H105.765V163.815Z" fill="#84B5FF"/>
<path d="M91.1768 137.247H73.9307V138.696H91.1768V137.247Z" fill="#06B25F"/>
<path d="M224.832 79.0228V79.4516H71.0809V79.0228C71.0809 73.3853 75.6539 68.8052 81.2986 68.8052H214.614C220.259 68.8052 224.832 73.3853 224.832 79.0228Z" fill="#84B5FF"/>
<path opacity="0.3" d="M211.481 74.6215C211.481 75.3575 210.888 75.9505 210.152 75.9505C209.416 75.9505 208.823 75.3575 208.823 74.6215C208.823 73.8855 209.416 73.2925 210.152 73.2925C210.881 73.2925 211.481 73.8855 211.481 74.6215Z" fill="white"/>
<path opacity="0.3" d="M218.756 74.6215C218.756 75.3575 218.163 75.9505 217.427 75.9505C216.691 75.9505 216.098 75.3575 216.098 74.6215C216.098 73.8855 216.691 73.2925 217.427 73.2925C218.156 73.2925 218.756 73.8855 218.756 74.6215Z" fill="white"/>
<path opacity="0.3" d="M225.708 74.6215C225.708 75.3575 225.115 75.9505 224.379 75.9505C223.643 75.9505 223.05 75.3575 223.05 74.6215C223.05 73.8855 223.643 73.2925 224.379 73.2925C225.115 73.2925 225.708 73.8855 225.708 74.6215Z" fill="white"/>
<path d="M224.832 79.0228V174.047C224.832 176.491 222.853 178.47 220.409 178.47H75.5038C73.0602 178.47 71.0809 176.491 71.0809 174.047V79.0228C71.0809 73.3853 75.6539 68.8052 81.2986 68.8052H214.614C220.259 68.8052 224.832 73.3853 224.832 79.0228Z" stroke="#84B5FF" stroke-miterlimit="10"/>
<g filter="url(#filter0_d_53_822)">
<rect x="211.489" y="115.599" width="75.7394" height="33.8302" rx="6" fill="#84B5FF"/>
</g>
<path d="M237.501 139.055L233.629 132.504L237.501 125.952L239.368 132.504L237.501 139.055ZM228.882 138.416L224.016 133.562H231.762L235.634 140.114L228.882 138.416ZM228.882 126.572L235.615 124.874L231.742 131.425H223.996L228.882 126.572ZM238.772 121.658L229.974 123.955L228.663 126.212L226.022 126.192L219.567 132.504L226.022 138.816L228.663 138.796L229.974 141.053L238.772 143.37L241.136 134.761L239.805 132.524L241.136 130.287L238.772 121.658ZM258.752 128.03C257.58 128.03 256.786 128.529 256.19 129.448H256.15V128.269H254.085V136.938H256.19V132.025C256.19 130.846 256.925 130.027 257.938 130.027C258.891 130.027 259.606 130.606 259.606 131.625V136.958H261.711V131.285C261.731 129.388 260.539 128.03 258.752 128.03ZM250.887 133.283C250.887 134.441 250.232 135.24 249.159 135.24C248.186 135.24 247.571 134.681 247.571 133.662V128.269H245.465V134.062C245.465 135.959 246.538 137.198 248.464 137.198C249.676 137.198 250.351 136.738 250.927 135.94H250.987V136.958H253.012V128.269H250.907V133.283H250.887ZM262.843 128.269H264.949V136.938H262.843V128.269ZM262.843 125.573H264.949V127.311H262.843V125.573ZM276.885 128.269L275.634 132.184C275.356 132.983 275.137 134.082 275.137 134.082H275.077C275.077 134.082 274.799 132.983 274.521 132.184L273.111 128.269H270.847L273.171 134.441C273.667 135.76 273.826 136.319 273.826 136.798C273.826 137.517 273.449 137.977 272.555 137.977H271.741V139.794H273.091C274.839 139.794 275.455 139.095 276.11 137.178L279.149 128.289H276.885V128.269ZM268.881 134.401V129.807H270.232V128.289H268.881V125.573H266.776V128.269H265.584V129.787H266.776V134.881C266.776 136.519 268.007 136.958 269.119 136.958C270.033 136.958 270.271 136.918 270.271 136.918V135.24H269.735C269.238 135.26 268.881 135.041 268.881 134.401Z" fill="white"/>
<g filter="url(#filter1_d_53_822)">
<path d="M134.152 184.596L142.183 183.086V175.885L134.152 174.501C133.535 171.543 132.365 168.773 130.754 166.319L135.361 159.559L130.263 154.461L123.604 159.169C121.149 157.558 118.393 156.4 115.422 155.783L113.911 147.752H106.711L105.327 155.783C102.369 156.4 99.5994 157.571 97.1448 159.182L90.3978 154.575L85.2999 159.673L90.0076 166.331C88.3964 168.786 87.2384 171.555 86.6216 174.513L78.5907 176.024V183.224L86.6216 184.609C87.2384 187.579 88.409 190.336 90.0202 192.791L85.4132 199.538L90.5111 204.635L97.1826 199.928C99.6371 201.539 102.406 202.71 105.364 203.314L106.875 211.345H114.075L115.46 203.314C118.43 202.697 121.187 201.526 123.642 199.915L130.389 204.522L135.487 199.424L130.779 192.765C132.377 190.323 133.535 187.567 134.152 184.596ZM110.387 194.465C102.155 194.465 95.4832 187.781 95.4832 179.561C95.4832 171.341 102.155 164.657 110.387 164.657C118.619 164.657 125.291 171.329 125.291 179.561C125.291 187.793 118.619 194.465 110.387 194.465Z" fill="#276ED8"/>
</g>
<g filter="url(#filter2_d_53_822)">
<path d="M168.397 228.009L172.581 229.475L174.537 226.099L171.137 223.268C171.649 221.711 171.854 220.085 171.763 218.505L175.766 216.584L174.753 212.81L170.353 213.219C169.636 211.798 168.647 210.502 167.43 209.411L168.897 205.228L165.52 203.272L162.688 206.671C161.13 206.16 159.504 205.955 157.923 206.046L156.002 202.056L152.226 203.068L152.636 207.478C151.214 208.195 149.918 209.184 148.826 210.4L144.641 208.934L142.685 212.31L146.085 215.14C145.574 216.709 145.369 218.312 145.46 219.904L141.469 221.825L142.481 225.599L146.893 225.19C147.609 226.611 148.587 227.907 149.815 228.998L148.348 233.181L151.726 235.137L154.557 231.738C156.127 232.249 157.73 232.454 159.322 232.363L161.244 236.353L165.019 235.341L164.61 230.93C166.009 230.226 167.305 229.248 168.397 228.009ZM154.557 226.201C150.691 223.973 149.372 219.028 151.601 215.163C153.83 211.298 158.776 209.979 162.643 212.207C166.509 214.436 167.828 219.381 165.599 223.246C163.37 227.111 158.424 228.43 154.557 226.201Z" fill="#84B5FF"/>
</g>
<g filter="url(#filter3_d_53_822)">
<rect x="55.7258" y="57.0078" width="41.4423" height="40.7278" rx="6" fill="#06B25F"/>
</g>
<path d="M69.8322 84.1067L60.3456 78.9762C59.7326 78.6213 59.426 78.0728 59.426 77.3306C59.426 76.5562 59.7487 76.0077 60.394 75.685L69.8322 70.5061V72.3937C69.8322 72.5228 69.7838 72.7003 69.687 72.9261C69.5902 73.1197 69.445 73.2649 69.2514 73.3617L62.5237 77.0402C62.2655 77.2338 62.2655 77.4274 62.5237 77.621L69.8322 81.5415V84.1067Z" fill="white"/>
<path d="M77.9127 68.9573H79.8003L75.1054 85.0263C74.9764 85.4458 74.686 85.6555 74.2342 85.6555H73.0242L77.9127 68.9573Z" fill="white"/>
<path d="M82.8471 70.5061L92.2853 75.685C92.9629 76.0399 93.3017 76.5885 93.3017 77.3306C93.3017 78.0728 92.9629 78.6052 92.2853 78.9278L82.8471 84.1067V82.2191C82.8471 82.1223 82.8794 81.9609 82.9439 81.7351C83.0407 81.5092 83.1859 81.3479 83.3795 81.2511L90.1556 77.621C90.4138 77.4274 90.4138 77.2338 90.1556 77.0402L82.8471 73.0713V70.5061Z" fill="white"/>
<defs>
<filter id="filter0_d_53_822" x="205.489" y="109.599" width="97.7394" height="55.8303" filterUnits="userSpaceOnUse" color-interpolation-filters="sRGB">
<feFlood flood-opacity="0" result="BackgroundImageFix"/>
<feColorMatrix in="SourceAlpha" type="matrix" values="0 0 0 0 0 0 0 0 0 0 0 0 0 0 0 0 0 0 127 0" result="hardAlpha"/>
<feMorphology radius="3" operator="dilate" in="SourceAlpha" result="effect1_dropShadow_53_822"/>
<feOffset dx="5" dy="5"/>
<feGaussianBlur stdDeviation="4"/>
<feColorMatrix type="matrix" values="0 0 0 0 0 0 0 0 0 0 0 0 0 0 0 0 0 0 0.2 0"/>
<feBlend mode="normal" in2="BackgroundImageFix" result="effect1_dropShadow_53_822"/>
<feBlend mode="normal" in="SourceGraphic" in2="effect1_dropShadow_53_822" result="shape"/>
</filter>
<filter id="filter1_d_53_822" x="68.5907" y="141.752" width="83.5925" height="83.5925" filterUnits="userSpaceOnUse" color-interpolation-filters="sRGB">
<feFlood flood-opacity="0" result="BackgroundImageFix"/>
<feColorMatrix in="SourceAlpha" type="matrix" values="0 0 0 0 0 0 0 0 0 0 0 0 0 0 0 0 0 0 127 0" result="hardAlpha"/>
<feOffset dy="4"/>
<feGaussianBlur stdDeviation="5"/>
<feColorMatrix type="matrix" values="0 0 0 0 0.0885677 0 0 0 0 0.0395834 0 0 0 0 0.395833 0 0 0 0.25 0"/>
<feBlend mode="normal" in2="BackgroundImageFix" result="effect1_dropShadow_53_822"/>
<feBlend mode="normal" in="SourceGraphic" in2="effect1_dropShadow_53_822" result="shape"/>
</filter>
<filter id="filter2_d_53_822" x="131.469" y="196.056" width="54.2971" height="54.2971" filterUnits="userSpaceOnUse" color-interpolation-filters="sRGB">
<feFlood flood-opacity="0" result="BackgroundImageFix"/>
<feColorMatrix in="SourceAlpha" type="matrix" values="0 0 0 0 0 0 0 0 0 0 0 0 0 0 0 0 0 0 127 0" result="hardAlpha"/>
<feOffset dy="4"/>
<feGaussianBlur stdDeviation="5"/>
<feColorMatrix type="matrix" values="0 0 0 0 0.0885677 0 0 0 0 0.0395834 0 0 0 0 0.395833 0 0 0 0.25 0"/>
<feBlend mode="normal" in2="BackgroundImageFix" result="effect1_dropShadow_53_822"/>
<feBlend mode="normal" in="SourceGraphic" in2="effect1_dropShadow_53_822" result="shape"/>
</filter>
<filter id="filter3_d_53_822" x="49.7258" y="51.0078" width="63.4423" height="62.7278" filterUnits="userSpaceOnUse" color-interpolation-filters="sRGB">
<feFlood flood-opacity="0" result="BackgroundImageFix"/>
<feColorMatrix in="SourceAlpha" type="matrix" values="0 0 0 0 0 0 0 0 0 0 0 0 0 0 0 0 0 0 127 0" result="hardAlpha"/>
<feMorphology radius="3" operator="dilate" in="SourceAlpha" result="effect1_dropShadow_53_822"/>
<feOffset dx="5" dy="5"/>
<feGaussianBlur stdDeviation="4"/>
<feColorMatrix type="matrix" values="0 0 0 0 0 0 0 0 0 0 0 0 0 0 0 0 0 0 0.2 0"/>
<feBlend mode="normal" in2="BackgroundImageFix" result="effect1_dropShadow_53_822"/>
<feBlend mode="normal" in="SourceGraphic" in2="effect1_dropShadow_53_822" result="shape"/>
</filter>
</defs>
</svg>
